<?xml version="1.0" encoding="UTF-8"?>
<svg width="203px" height="101px" viewBox="0 0 203 101" version="1.1" xmlns="http://www.w3.org/2000/svg" xmlns:xlink="http://www.w3.org/1999/xlink">
    <!-- Generator: Sketch 45 (43475) - http://www.bohemiancoding.com/sketch -->
    <title>Imported Layers Copy 2</title>
    <desc>Created with Sketch.</desc>
    <defs></defs>
    <g id="Page-1" stroke="none" stroke-width="1" fill="none" fill-rule="evenodd">
        <g id="Desktop-HD-Copy-2" transform="translate(-619.000000, -348.000000)" fill="#FFFFFF">
            <g id="Imported-Layers-Copy-2" transform="translate(619.500000, 348.000000)">
                <path d="M36.3539059,72.114 L22.2154011,72.114 C12.9986075,72.114 5.50110642,64.444875 5.50110642,55.01625 C5.50110642,45.5844375 12.9986075,37.912125 22.2154011,37.912125 C22.8294342,37.912125 23.5032961,37.963125 24.3314535,38.065125 L27.0520923,38.409375 L27.3228966,35.63625 C29.0044025,18.6915 42.8406141,5.916 59.5139733,5.916 C66.7532656,5.916 73.5863514,8.4309375 79.1032023,12.7404375 C80.2934818,11.3698125 81.5404412,10.0725 82.8566762,8.8644375 C76.3069902,3.5731875 68.1041383,0.465375 59.5139733,0.465375 C40.9008994,0.465375 25.4272664,13.85925 22.3476544,32.4646875 L22.2154011,32.4646875 C10.0480999,32.4646875 0.147997711,42.5818125 0.147997711,55.01625 C0.147997711,67.4475 10.0480999,77.564625 22.2154011,77.564625 L36.4798614,77.564625 C36.3539059,76.43625 36.2657371,75.2919375 36.2657371,74.1253125 C36.2657371,73.446375 36.3098215,72.7801875 36.3539059,72.114" id="Fill-1"></path>
                <path d="M168.285993,32.518875 C165.911732,32.518875 163.543769,32.7770625 161.229337,33.29025 C153.826302,15.77175 136.551505,4.086375 117.859709,4.086375 C94.5358998,4.086375 75.138753,20.8749375 71.2782169,44.1915 L71.1144748,44.1915 C55.8612638,44.1915 43.4546472,56.871375 43.4546472,72.4550625 C43.4546472,88.03875 55.8612638,100.715438 71.1144748,100.715438 L168.285993,100.715438 C186.681794,100.715438 201.648456,85.418625 201.648456,66.61875 C201.648456,47.8156875 186.681794,32.518875 168.285993,32.518875 L168.285993,32.518875 Z M194.938177,66.61875 C194.938177,81.6541875 182.981851,93.884625 168.285993,93.884625 L71.1144748,93.884625 C59.5612066,93.884625 50.1617775,84.2743125 50.1617775,72.4550625 C50.1617775,60.6358125 59.5612066,51.0223125 71.1144748,51.0223125 C71.8828033,51.0223125 72.7267051,51.082875 73.765838,51.2135625 L77.1729343,51.643875 L77.516163,48.1663125 C79.6227687,26.9311875 96.9668409,10.9171875 117.859709,10.9171875 C134.951871,10.9171875 150.29325,22.0096875 156.036821,38.5145625 L157.120038,41.6319375 L160.212246,40.627875 C162.838418,39.78 165.552759,39.352875 168.285993,39.352875 C182.981851,39.352875 194.938177,51.5833125 194.938177,66.61875 L194.938177,66.61875 Z" id="Fill-2"></path>
            </g>
        </g>
    </g>
</svg>