<?xml version="1.0" encoding="UTF-8"?>
<svg width="45px" height="50px" viewBox="0 0 45 50" version="1.1" xmlns="http://www.w3.org/2000/svg" xmlns:xlink="http://www.w3.org/1999/xlink">
    <!-- Generator: Sketch 45 (43475) - http://www.bohemiancoding.com/sketch -->
    <title>Shape</title>
    <desc>Created with Sketch.</desc>
    <defs></defs>
    <g id="Page-1" stroke="none" stroke-width="1" fill="none" fill-rule="evenodd" opacity="0.456068841">
        <g id="Desktop-HD-Copy" transform="translate(-698.000000, -36.000000)" fill="#000000">
            <path d="M721.547619,40.5034243 L721.547619,36.2647849 L719.452381,36.2647849 L719.452381,40.5034243 C707.809143,41.0548346 698.5,50.6600455 698.5,62.4227667 L698.5,64.5154053 L700.595238,64.5154053 C700.595238,62.207225 702.474667,60.3301282 704.785714,60.3301282 C707.096762,60.3301282 708.97619,62.207225 708.97619,64.5154053 L711.071429,64.5154053 C711.071429,62.207225 712.950857,60.3301282 715.261905,60.3301282 C717.572952,60.3301282 719.452381,62.207225 719.452381,64.5154053 L719.452381,81.2565136 C719.452381,83.564694 721.33181,85.4417907 723.642857,85.4417907 C725.953905,85.4417907 727.833333,83.564694 727.833333,81.2565136 L727.833333,79.1638751 L725.738095,79.1638751 L725.738095,81.2565136 C725.738095,82.4106038 724.798381,83.3491522 723.642857,83.3491522 C722.487333,83.3491522 721.547619,82.4106038 721.547619,81.2565136 L721.547619,64.5154053 C721.547619,62.207225 723.427048,60.3301282 725.738095,60.3301282 C728.049143,60.3301282 729.928571,62.207225 729.928571,64.5154053 L732.02381,64.5154053 C732.02381,62.207225 733.903238,60.3301282 736.214286,60.3301282 C738.525333,60.3301282 740.404762,62.207225 740.404762,64.5154053 L742.5,64.5154053 L742.5,62.4227667 C742.5,50.6600455 733.190857,41.0548346 721.547619,40.5034243 Z M709.036952,59.8938131 C707.917048,58.8663275 706.423143,58.2374897 704.785714,58.2374897 C703.266667,58.2374897 701.872286,58.7784367 700.784857,59.677225 C701.977048,51.0953143 708.678667,44.2607568 717.193714,42.8304384 C712.413429,47.2532299 709.472762,53.3585029 709.036952,59.8938131 Z M725.738095,58.2374897 C723.554857,58.2374897 721.627238,59.3549586 720.5,61.0489495 C719.372762,59.3549586 717.445143,58.2374897 715.261905,58.2374897 C713.688381,58.2374897 712.25419,58.8234285 711.15,59.7818569 C711.671714,53.0623945 715.072286,46.8608602 720.5,42.8021878 C725.927714,46.8608602 729.328286,53.0623945 729.85,59.7818569 C728.74581,58.8244748 727.311619,58.2374897 725.738095,58.2374897 Z M736.214286,58.2374897 C734.576857,58.2374897 733.082952,58.8663275 731.963048,59.8948594 C731.527238,53.3595492 728.586571,47.2542763 723.806286,42.8314847 C732.321333,44.2607568 739.022952,51.0963606 740.215143,59.6782713 C739.127714,58.7784367 737.733333,58.2374897 736.214286,58.2374897 Z" id="Shape"></path>
        </g>
    </g>
</svg>